<svg version="1.1" id="homelogo" xmlns="http://www.w3.org/2000/svg" xmlns:xlink="http://www.w3.org/1999/xlink" x="0px" y="0px" viewBox="0 0 279 279" enable-background="new 0 0 279 279" xml:space="preserve">
    <path opacity="0.8" fill="#FFFFFF" d="M205.5,226.4c-7.8,0-14.1-6.3-14.1-14.1V71.4c0-7.8,6.3-14.1,14.1-14.1
      c7.8,0,14.1,6.3,14.1,14.1v140.8C219.6,220,213.3,226.4,205.5,226.4z"></path>
    <path opacity="0.8" fill="#FFFFFF" d="M139.5,151.5c-3.6,0-7.2-1.4-10-4.1c-5.5-5.5-5.5-14.5,0-20l66-66c5.5-5.5,14.5-5.5,20,0
      c5.5,5.5,5.5,14.5,0,20l-66,66C146.7,150.2,143.1,151.5,139.5,151.5z"></path>
    <path opacity="0.8" fill="#FFFFFF" d="M73.5,226.4c-7.8,0-14.1-6.3-14.1-14.1V71.4c0-7.8,6.3-14.1,14.1-14.1s14.1,6.3,14.1,14.1
      v140.8C87.7,220,81.3,226.4,73.5,226.4z"></path>
    <path opacity="0.8" fill="#FFFFFF" d="M139.5,151.5c-3.6,0-7.2-1.4-10-4.1l-66-66c-5.5-5.5-5.5-14.5,0-20c5.5-5.5,14.5-5.5,20,0
      l66,66c5.5,5.5,5.5,14.5,0,20C146.7,150.2,143.1,151.5,139.5,151.5z"></path>
    </svg>